<svg width="53" height="53" fill="none" xmlns="http://www.w3.org/2000/svg"><g clip-path="url(#a)" fill="#0CBD68"><path d="M35.207.656c-.56 0-1.016.455-1.016 1.016v4.672a1.016 1.016 0 0 0 2.032 0V1.672c0-.56-.455-1.016-1.016-1.016ZM11.848 32.344a1.016 1.016 0 1 0 0 2.032 1.016 1.016 0 0 0 0-2.032Z"/><path d="M49.426 30.313a4.067 4.067 0 0 0-4.063-4.063h-7.582c1.174-3.007 1.65-6.545 1.558-9.696-.018-.6-.04-.948-.072-1.167a4.068 4.068 0 0 0-4.06-3.965 4.067 4.067 0 0 0-4.063 4.062V16.5c0 6.423-8.248 10.032-14.472 11.58a3.051 3.051 0 0 0-2.793-1.83H3.723c-.561 0-1.016.455-1.016 1.016V51.64c0 .56.455 1.015 1.016 1.015h10.156a3.05 3.05 0 0 0 2.783-1.809l1.435.373c3.546.926 5.5 1.436 10.25 1.436H39.27a4.067 4.067 0 0 0 4.063-4.062c0-.836-.254-1.613-.688-2.259a4.064 4.064 0 0 0 2.72-3.835c0-.832-.248-1.612-.68-2.261a4.064 4.064 0 0 0 2.023-6.091 4.064 4.064 0 0 0 2.719-3.836ZM14.894 49.608c0 .56-.455 1.016-1.015 1.016h-9.14V28.281h9.14c.56 0 1.016.456 1.016 1.016v20.312Zm30.47-17.265h-5.079a1.016 1.016 0 1 0 0 2.031h3.047a2.031 2.031 0 0 1 0 4.063h-5.078a1.016 1.016 0 0 0 0 2.03H41.3c1.106 0 2.031.885 2.031 2.032 0 1.122-.91 2.031-2.031 2.031h-5.078a1.016 1.016 0 0 0 0 2.032h3.047c1.12 0 2.03.91 2.03 2.03 0 1.12-.91 2.032-2.03 2.032H28.346c-4.49 0-6.243-.458-9.736-1.37-.512-.134-1.073-.28-1.685-.437V30.113c7.35-1.75 16.25-6.024 16.25-13.612v-1.016c0-1.12.911-2.03 2.031-2.03 1.118 0 2.03.909 2.031 2.027v.003c0 .442.551 5.859-1.658 10.766h-3.42a1.016 1.016 0 0 0 0 2.031h13.203a2.031 2.031 0 1 1 0 4.063Z"/><path d="M11.848 36.406c-.561 0-1.016.455-1.016 1.016v8.125a1.016 1.016 0 0 0 2.031 0v-8.125c0-.561-.454-1.016-1.015-1.016ZM27.082 13.453h-4.063a1.016 1.016 0 0 0 0 2.031h4.063a1.016 1.016 0 0 0 0-2.03ZM47.395 13.453h-4.063a1.016 1.016 0 0 0 0 2.031h4.063a1.016 1.016 0 0 0 0-2.03ZM44.543 5.133a1.016 1.016 0 0 0-1.436 0l-2.872 2.872a1.016 1.016 0 1 0 1.436 1.437l2.872-2.872a1.016 1.016 0 0 0 0-1.437ZM30.18 8.005l-2.872-2.872a1.016 1.016 0 0 0-1.436 1.437l2.872 2.872a1.016 1.016 0 0 0 1.436-1.437Z"/></g><defs><clipPath id="a"><path fill="#fff" transform="translate(.066 .656)" d="M0 0h52v52H0z"/></clipPath></defs></svg>