<svg width="43" height="58" fill="none" xmlns="http://www.w3.org/2000/svg"><path d="M25.282 17.465a9.5 9.5 0 1 0-18.905-1.366c0 1.128.06 2.375 1.27 2.375a1.186 1.186 0 0 0 1.188-1.366 7.125 7.125 0 1 1 14.107 0 1.187 1.187 0 0 0 2.34.357Z" fill="#0CBD68" stroke="#303948" stroke-width=".5"/><path d="M15.877 3.034a13.063 13.063 0 0 1 12.646 16.328 1.19 1.19 0 1 0 2.304.594 15.438 15.438 0 1 0-29.9 0 1.19 1.19 0 1 0 2.303-.594A13.062 13.062 0 0 1 15.877 3.034Z" fill="#0CBD68" stroke="#303948" stroke-width=".5"/><path d="M34.877 28.644a4.75 4.75 0 0 0-7.34-3.432 4.75 4.75 0 0 0-6.91-2.517V17.48a4.75 4.75 0 0 0-8.016-3.645c-1.971 1.864-1.484 2.767-1.484 16.506-3.206-2.375-7.125-.95-7.125 2.375v9.5a15.437 15.437 0 0 0 15.437 15.437h7.125a15.438 15.438 0 0 0 15.437-15.437v-9.298a4.75 4.75 0 0 0-7.124-4.275Zm4.75 13.573a13.063 13.063 0 0 1-13.063 13.062H19.44A13.062 13.062 0 0 1 6.377 42.217v-9.5c0-1.663 2.375-1.46 3.67-.19 1.294 1.27 1.08 2.399 1.08 9.69a1.187 1.187 0 1 0 2.375 0V17.28a2.374 2.374 0 0 1 2.505-2.375 2.53 2.53 0 0 1 2.245 2.576v17.61a1.187 1.187 0 1 0 2.375 0V26.78a2.375 2.375 0 0 1 4.75 0v8.313a1.187 1.187 0 1 0 2.375 0v-5.938a2.375 2.375 0 0 1 4.75 0v5.938a1.187 1.187 0 1 0 2.374 0c0-2.577-.154-3.254.737-4.097a2.375 2.375 0 0 1 4.014 1.924v9.298Z" fill="#0CBD68" stroke="#303948" stroke-width=".5"/></svg>