<svg width="51" height="54" fill="none" xmlns="http://www.w3.org/2000/svg"><g clip-path="url(#a)" fill="#0CBD68"><path d="m42.019 30.942 7.204-8.575a3.685 3.685 0 0 0 .833-2.65 3.571 3.571 0 0 0-1.238-2.46c-1.44-1.17-3.49-.94-4.667.523l-5.447 6.483-8.09-7.636a1.601 1.601 0 0 0-2.352.144L2.31 47.659c-1.234 1.407-1.213 3.592.049 4.971A3.209 3.209 0 0 0 4.7 53.654h.11a3.273 3.273 0 0 0 2.382-1.182l22.721-27.044 6.223 5.875c1.72 1.618 4.35 1.456 5.882-.361Zm-4.774-.96-6.222-5.873a1.624 1.624 0 0 0-1.205-.442 1.62 1.62 0 0 0-1.147.59L5.949 51.294a1.615 1.615 0 0 1-1.191.592 1.68 1.68 0 0 1-1.228-.512 1.953 1.953 0 0 1 .024-2.54l25.952-30.888 8.09 7.636c.687.648 1.74.584 2.352-.144l5.448-6.484c.592-.749 1.628-.887 2.378-.319a1.8 1.8 0 0 1 .62 1.232c.04.483-.11.962-.415 1.324l-7.204 8.575c-.92 1.09-2.498 1.187-3.53.216ZM16.846 13.087l5.6 5.287c.687.648 1.74.584 2.352-.145l2.217-2.638c.612-.728.551-1.845-.136-2.494l-7.467-7.05c-1.718-1.621-4.352-1.46-5.882.362l-7.205 8.575a3.689 3.689 0 0 0-.833 2.65 3.571 3.571 0 0 0 1.245 2.459 3.12 3.12 0 0 0 2.031.75c1.008-.007 1.966-.47 2.632-1.272l5.446-6.484Zm-9.07 5.627a1.798 1.798 0 0 1-.622-1.23 1.835 1.835 0 0 1 .416-1.326l7.204-8.574a2.431 2.431 0 0 1 1.722-.884c.05 0 .1-.005.149-.005a2.398 2.398 0 0 1 1.659.672l7.467 7.047-2.216 2.638-5.6-5.287a1.602 1.602 0 0 0-2.353.145l-5.45 6.486c-.592.747-1.627.885-2.376.318Z"/><path d="M25.84 52.634a3.21 3.21 0 0 0 2.343 1.024h.108a3.275 3.275 0 0 0 2.385-1.18l7.204-8.575c1.53-1.822 1.378-4.614-.341-6.236l-7.468-7.05a1.616 1.616 0 0 0-1.205-.442 1.619 1.619 0 0 0-1.148.59L25.5 33.402c-.612.729-.55 1.846.137 2.494l5.6 5.284-5.45 6.484c-1.232 1.407-1.21 3.591.052 4.97Zm1.196-3.797 5.451-6.483c.612-.728.55-1.844-.136-2.493l-5.603-5.286 2.216-2.637 7.467 7.05c1.03.973 1.122 2.648.204 3.74l-7.204 8.575a1.616 1.616 0 0 1-1.193.59 1.566 1.566 0 0 1-1.226-.513 1.954 1.954 0 0 1 .024-2.542v-.001ZM31.747 14.544c1.368 1.299 3.14 2.015 4.977 2.012.148 0 .296-.005.444-.014 3.572-.22 6.5-3.083 6.993-6.84.494-3.755-1.584-7.358-4.964-8.604-3.379-1.245-7.117.212-8.93 3.482-1.811 3.27-1.192 7.442 1.48 9.963v.001Zm.632-10.048c2.142-2.55 5.829-2.777 8.235-.506 2.405 2.271 2.619 6.18.476 8.73-2.142 2.55-5.829 2.775-8.235.504-1.157-1.088-1.858-2.621-1.947-4.259-.09-1.638.44-3.246 1.47-4.47ZM.074 24.508c0 .488.373.883.833.883h6.666c.46 0 .833-.395.833-.883s-.373-.883-.833-.883H.907c-.46 0-.833.395-.833.883ZM3.406 28.04c0 .487.373.883.833.883h6.666c.46 0 .834-.396.834-.884 0-.487-.373-.883-.834-.883H4.24c-.46 0-.833.396-.833.883Z"/></g><defs><clipPath id="a"><path fill="#fff" transform="translate(.066 .656)" d="M0 0h50v53H0z"/></clipPath></defs></svg>