<svg width="51" height="51" fill="none" xmlns="http://www.w3.org/2000/svg"><g clip-path="url(#a)" fill="#0CBD68"><path d="M28.353 50.654h-6.25c-1.459 0-3.125-1.25-3.125-3.75v-4.375c0-2.084-1.042-3.959-2.709-5.417-3.75-2.917-5.624-7.083-5.624-11.667.208-7.916 6.666-14.166 14.375-14.375 3.958 0 7.708 1.459 10.416 4.167 2.709 2.708 4.375 6.458 4.375 10.417 0 4.375-1.875 8.541-5.416 11.25-1.876 1.458-2.917 3.75-2.917 5.833v4.792c0 1.666-1.459 3.125-3.125 3.125Zm-3.125-37.5c-6.667 0-12.292 5.625-12.5 12.291 0 3.959 1.667 7.709 4.792 10 2.291 1.875 3.541 4.375 3.541 7.084v4.375c0 .416 0 1.666 1.042 1.666h6.25c.625 0 1.041-.416 1.041-1.041v-4.792c0-2.708 1.459-5.625 3.75-7.5 2.917-2.292 4.584-5.833 4.584-9.583 0-3.334-1.25-6.459-3.75-8.959-2.292-2.291-5.417-3.541-8.75-3.541Z"/><path d="M30.435 44.404H20.018c-.625 0-1.041-.417-1.041-1.042s.416-1.042 1.041-1.042h10.417c.625 0 1.042.417 1.042 1.042s-.417 1.042-1.042 1.042ZM25.225 6.906c-.625 0-1.041-.416-1.041-1.041V1.698c0-.625.416-1.042 1.041-1.042s1.042.417 1.042 1.042v4.167c0 .625-.417 1.041-1.042 1.041ZM39.185 12.74c-.208 0-.625 0-.833-.209a1.007 1.007 0 0 1 0-1.458l2.916-2.917a1.007 1.007 0 0 1 1.459 0 1.007 1.007 0 0 1 0 1.459L39.81 12.53s-.417.209-.625.209ZM49.185 26.7h-4.167c-.625 0-1.041-.416-1.041-1.041s.416-1.042 1.041-1.042h4.167c.625 0 1.042.417 1.042 1.042S49.81 26.7 49.185 26.7ZM42.102 43.575c-.209 0-.625 0-.834-.208l-2.916-2.916a1.007 1.007 0 0 1 0-1.459 1.007 1.007 0 0 1 1.458 0l2.917 2.917a1.007 1.007 0 0 1 0 1.458c0 .209-.209.209-.625.209ZM8.353 43.575c-.208 0-.625 0-.833-.208a1.007 1.007 0 0 1 0-1.458l2.916-2.917a1.007 1.007 0 0 1 1.459 0 1.007 1.007 0 0 1 0 1.459l-2.917 2.916c-.208.209-.417.209-.625.209ZM5.435 26.7H1.268c-.625 0-1.041-.416-1.041-1.041s.416-1.042 1.041-1.042h4.167c.625 0 1.042.417 1.042 1.042S6.06 26.7 5.435 26.7ZM11.27 12.737c-.209 0-.625 0-.834-.208L7.52 9.404a1.007 1.007 0 0 1 0-1.459 1.007 1.007 0 0 1 1.458 0l2.917 2.917a1.007 1.007 0 0 1 0 1.458c-.209.209-.417.417-.625.417ZM33.559 26.698c-.625 0-1.042-.417-1.042-1.042 0-3.958-3.333-7.291-7.292-7.291-.625 0-1.041-.417-1.041-1.042s.416-1.042 1.041-1.042a9.336 9.336 0 0 1 9.375 9.375c0 .625-.416 1.042-1.041 1.042Z"/></g><defs><clipPath id="a"><path fill="#fff" transform="translate(.227 .656)" d="M0 0h50v50H0z"/></clipPath></defs></svg>