<svg width="63" height="62" fill="none" xmlns="http://www.w3.org/2000/svg"><g clip-path="url(#a)" fill="#0CBD68"><path d="M62.065 31.163c0-11.765-10.648-21.853-25.319-23.988A1.212 1.212 0 0 0 35.37 8.18c-.098.652.36 1.26 1.023 1.356 13.47 1.96 23.246 11.055 23.246 21.626 0 3.414-.992 6.689-2.948 9.733-.123.191-.188.413-.188.638l.002 8.811-5.054-2.869a1.23 1.23 0 0 0-1.305.058c-5.25 3.636-12.027 5.638-19.08 5.638-15.756 0-28.574-9.873-28.574-22.009 0-10.585 9.793-19.683 23.285-21.632A1.197 1.197 0 0 0 26.8 8.177a1.21 1.21 0 0 0-1.376-1.008C10.729 9.291.064 19.382.064 31.163c0 6.57 3.262 12.73 9.185 17.343 5.84 4.548 13.587 7.054 21.816 7.054 7.265 0 14.274-1.998 19.834-5.64l6.212 3.526c.376.213.838.213 1.214 0a1.19 1.19 0 0 0 .606-1.034l-.002-10.537c2.08-3.349 3.136-6.95 3.136-10.712Z"/><path d="M10.516 23.133c-.67 0-1.213.534-1.213 1.194v11.866a1.2 1.2 0 0 0 1.008 1.177c.086.014 3.07.007 4.439 0 .67-.004 1.21-.525 1.206-1.184A1.204 1.204 0 0 0 14.743 35h-.007c-1.054.006-2.19.01-3.007.01V24.327c0-.66-.543-1.194-1.213-1.194ZM34.542 37.37s3.07.007 4.438 0c.67-.004 1.21-.525 1.207-1.184A1.204 1.204 0 0 0 38.974 35h-.007c-1.054.006-2.19.01-3.007.01V24.327c0-.66-.543-1.194-1.213-1.194s-1.214.534-1.214 1.194v11.866a1.2 1.2 0 0 0 1.009 1.177ZM16.65 30.64c0 3.932 3.252 7.131 7.25 7.131 3.996 0 7.248-3.199 7.248-7.131 0-3.933-3.252-7.132-7.249-7.132s-7.249 3.2-7.249 7.132Zm12.071 0c0 2.616-2.163 4.744-4.822 4.744-2.659 0-4.822-2.128-4.822-4.744 0-2.616 2.163-4.745 4.822-4.745 2.66 0 4.822 2.129 4.822 4.745ZM51.547 21.717c0-.659-.544-1.194-1.214-1.194H45.34c-.67 0-1.213.535-1.213 1.194v10.16c0 .659.543 1.194 1.213 1.194h4.993c.67 0 1.214-.535 1.214-1.194v-10.16Zm-2.427 8.966h-2.566V22.91h2.566v7.772ZM47.837 34.64c-2.007 0-3.64 1.607-3.64 3.582 0 1.974 1.633 3.581 3.64 3.581s3.64-1.606 3.64-3.581c0-1.975-1.633-3.581-3.64-3.581Zm0 4.776a1.205 1.205 0 0 1-1.213-1.194c0-.658.544-1.194 1.213-1.194.67 0 1.214.535 1.214 1.194 0 .658-.545 1.194-1.214 1.194ZM30.974 9.135a1.207 1.207 0 0 0 1.295-1.108 1.2 1.2 0 0 0-1.125-1.274 1.207 1.207 0 0 0-1.295 1.107 1.2 1.2 0 0 0 1.125 1.275Z"/></g><defs><clipPath id="a"><path fill="#fff" transform="translate(.064 .656)" d="M0 0h62v61H0z"/></clipPath></defs></svg>