<svg width="57" height="56" fill="none" xmlns="http://www.w3.org/2000/svg"><g clip-path="url(#a)" fill="#0CBD68"><path d="M46.658.656h-24.61c-2.658 0-4.88 1.873-5.368 4.346-4.73.473-8.303 4.292-8.303 9.082v8.057c0 2.711 2.056 4.96 4.718 5.32.957 4.365 3.85 8.031 7.748 10.087-4.595.814-8.091 4.771-8.091 9.514v7.52c0 .593.49 1.074 1.094 1.074h28.437c.604 0 1.094-.48 1.094-1.074v-7.52c0-4.743-3.497-8.7-8.091-9.514 4.812-2.538 8.09-7.53 8.09-13.259V12.194c2.664-2.067 4.376-5.267 4.376-8.852V1.73c0-.593-.49-1.074-1.094-1.074ZM25.877 39.175c1.423.204 2.952.204 4.375 0v1.227c-.11 2.847-4.266 2.845-4.375 0v-1.227Zm15.312 7.888v6.445h-3.28v-2.686c-.055-1.424-2.135-1.422-2.188 0v2.686H20.408v-2.686c-.054-1.424-2.134-1.422-2.187 0v2.686h-3.282v-6.446c0-4.146 3.435-7.519 7.657-7.519h1.093v.86c.221 5.693 8.532 5.689 8.75 0v-.86h1.094c4.222 0 7.656 3.373 7.656 7.52Zm0-22.774c-.662 17.082-25.594 17.069-26.25 0v-5.48c2.14-.427 3.83-2.087 4.266-4.188h17.063c1.76 0 3.429-.391 4.921-1.09V24.29Zm4.375-20.947c0 5.035-4.17 9.13-9.297 9.13H18.221c-.604 0-1.094.482-1.094 1.075 0 1.777-1.472 3.223-3.281 3.223-.604 0-1.094.48-1.094 1.074v6.445c0 .302.009.602.027.9-1.287-.436-2.215-1.638-2.215-3.048v-8.057c0-3.915 3.123-6.982 7.11-6.982.604 0 1.093-.482 1.093-1.075 0-1.777 1.473-3.222 3.282-3.222h23.515v.537Z"/><path d="M23.521 24.355c.428.42 1.12.42 1.547 0a1.06 1.06 0 0 0 0-1.519c-1.415-1.448-3.96-1.448-5.375 0a1.06 1.06 0 0 0 0 1.52c.427.419 1.12.419 1.547 0 .6-.615 1.681-.615 2.282 0ZM31.06 22.836a1.06 1.06 0 0 0 0 1.52c.428.419 1.12.419 1.547 0 .601-.615 1.681-.615 2.282 0 .427.419 1.12.419 1.546 0a1.06 1.06 0 0 0 0-1.52c-1.415-1.448-3.96-1.448-5.374 0ZM33.533 26.977H22.596c-.604 0-1.094.48-1.094 1.074.33 8.54 12.797 8.535 13.125 0 0-.593-.49-1.074-1.094-1.074Zm-5.469 5.37c-2.034 0-3.75-1.37-4.236-3.222H32.3c-.487 1.851-2.202 3.222-4.237 3.222Z"/></g><defs><clipPath id="a"><path fill="#fff" transform="translate(.064 .656)" d="M0 0h56v55H0z"/></clipPath></defs></svg>