<svg width="64" height="63" fill="none" xmlns="http://www.w3.org/2000/svg"><g clip-path="url(#a)"><path d="M21.982 13.943a.91.91 0 0 0 .527.477.937.937 0 0 0 1.006-.256.903.903 0 0 0 .127-1.014l-2.325-4.713a.918.918 0 0 0-.529-.461.937.937 0 0 0-.705.041.913.913 0 0 0-.469.52.895.895 0 0 0 .043.694l2.325 4.712Zm9.58-1.304a.93.93 0 0 0 .653-.266.9.9 0 0 0 .27-.643V7.018a.9.9 0 0 0-.27-.643.93.93 0 0 0-1.305 0 .9.9 0 0 0-.27.643v4.712a.9.9 0 0 0 .27.643.93.93 0 0 0 .653.266Zm8.348 1.724a.932.932 0 0 0 1.014-.138.906.906 0 0 0 .217-.282l2.325-4.712a.898.898 0 0 0-.426-1.214.935.935 0 0 0-1.234.42l-2.325 4.713a.894.894 0 0 0 .141 1c.081.089.179.161.288.213Zm9.987 3.09a.931.931 0 0 0 .893-.046.91.91 0 0 0 .34-.374l1.288-2.608a.896.896 0 0 0-.14-1 .923.923 0 0 0-.635-.304.937.937 0 0 0-.667.227.908.908 0 0 0-.218.282l-1.288 2.61a.897.897 0 0 0 .427 1.213Zm3.1 34.921-.018-.021-2.6-2.907a9.506 9.506 0 0 0-3.775-2.575 9.643 9.643 0 0 0-4.561-.532l-7.76.969c-.834.108-1.709-.514-1.789-1.347a1.47 1.47 0 0 1 .176-.858c.145-.262.367-.476.636-.613l7.183-3.561a7.497 7.497 0 0 0 3.613-3.966 7.345 7.345 0 0 0 .002-5.327l-.483-1.241a6.287 6.287 0 0 0-1.46-2.211 6.412 6.412 0 0 0-2.254-1.428 6.493 6.493 0 0 0-5.231.314 1.515 1.515 0 0 1-1.06.125 1.493 1.493 0 0 1-1.105-1.153c-.038-.197-.034-.4.011-.595.164-.713.906-1.06 1.507-1.407a9.332 9.332 0 0 1 6.616-1.038 9.213 9.213 0 0 1 5.579 3.652.935.935 0 0 0 1.286.223.897.897 0 0 0 .226-1.265 11.054 11.054 0 0 0-3.967-3.415 11.142 11.142 0 0 0-9.375-.363 1.448 1.448 0 0 1 .09-.903c.127-.284.341-.521.613-.678 2.983-1.71 6.644-2.249 9.698-.694a9.197 9.197 0 0 1 3.303 2.843l5.13 7.21a.917.917 0 0 0 .596.373.936.936 0 0 0 .94-.406.898.898 0 0 0-.023-1.01l-5.132-7.208a11.023 11.023 0 0 0-3.966-3.415c-3.728-1.9-7.892-1.332-11.479.74a3.294 3.294 0 0 0-1.46 1.74 3.233 3.233 0 0 0 .028 2.256 4.889 4.889 0 0 0-1.17.825 4.677 4.677 0 0 0-1.168-.825c.28-.725.29-1.524.027-2.256a3.294 3.294 0 0 0-1.46-1.74l-.805-.467a11.2 11.2 0 0 0-7.946-1.248 11.057 11.057 0 0 0-6.697 4.388L.23 40.022a.896.896 0 0 0 .244 1.24.935.935 0 0 0 1.267-.199L15.031 22.4a9.217 9.217 0 0 1 5.578-3.65 9.336 9.336 0 0 1 6.616 1.036c.698.402 1.733 1.062 1.509 2.045a11.14 11.14 0 0 0-9.375.363 11.054 11.054 0 0 0-3.967 3.415.901.901 0 0 0 .556 1.408.938.938 0 0 0 .696-.12.918.918 0 0 0 .26-.245A9.213 9.213 0 0 1 22.484 23a9.332 9.332 0 0 1 6.618 1.04l.805.463c.336.195.582.51.684.881.103.37.054.766-.136 1.101-.19.336-.505.585-.879.694-.374.109-.777.07-1.121-.11a6.491 6.491 0 0 0-5.234-.316 6.41 6.41 0 0 0-2.255 1.43 6.289 6.289 0 0 0-1.462 2.212l-.481 1.24a7.346 7.346 0 0 0 .003 5.33 7.499 7.499 0 0 0 3.62 3.966l7.167 3.555c.271.137.495.35.64.613.147.263.21.563.18.861-.08.83-.96 1.453-1.788 1.347l-4.419-.553a.938.938 0 0 0-.68.183.912.912 0 0 0-.351.603.895.895 0 0 0 .186.67.919.919 0 0 0 .613.345l4.416.554a3.58 3.58 0 0 0 1.6-.18c.512-.18.976-.475 1.353-.86.377.386.84.68 1.352.861.513.18 1.06.242 1.6.179l7.761-.97a7.777 7.777 0 0 1 3.676.43 7.666 7.666 0 0 1 3.042 2.075l2.59 2.906 7.365 8.788a.92.92 0 0 0 .627.342.937.937 0 0 0 .686-.202.91.91 0 0 0 .332-.625.896.896 0 0 0-.221-.67l-7.375-8.809ZM31.564 43.54c-.263-.272-.571-.5-.91-.672l-7.168-3.555a5.673 5.673 0 0 1-2.735-3 5.558 5.558 0 0 1-.002-4.03l.479-1.24c.23-.59.584-1.126 1.04-1.572a4.56 4.56 0 0 1 1.603-1.015 4.618 4.618 0 0 1 3.72.223c.643.332 1.379.45 2.095.334a3.355 3.355 0 0 0 1.877-.976c.5.517 1.159.86 1.876.976a3.385 3.385 0 0 0 2.094-.334 4.609 4.609 0 0 1 5.327.791c.455.447.81.983 1.04 1.574l.48 1.238a5.556 5.556 0 0 1 0 4.025 5.671 5.671 0 0 1-2.728 2.999l-7.183 3.562a3.38 3.38 0 0 0-.905.672Zm31.334-3.517-6.161-8.656a.935.935 0 0 0-1.286-.223.897.897 0 0 0-.226 1.265l6.162 8.655a.916.916 0 0 0 .597.395.937.937 0 0 0 .705-.147.916.916 0 0 0 .382-.601.893.893 0 0 0-.173-.688Zm-41.814 6.312a9.645 9.645 0 0 0-4.561.532 9.507 9.507 0 0 0-3.774 2.576l-2.595 2.91-.019.023-7.379 8.8a.904.904 0 0 0-.222.67.898.898 0 0 0 .333.624.927.927 0 0 0 .686.202.933.933 0 0 0 .627-.341l7.364-8.788 2.591-2.906a7.664 7.664 0 0 1 3.046-2.074 7.776 7.776 0 0 1 3.678-.426.937.937 0 0 0 .69-.177.912.912 0 0 0 .355-.608.896.896 0 0 0-.191-.676.92.92 0 0 0-.623-.34h-.006Zm-9.085-29.3a.91.91 0 0 0 .34.373.932.932 0 0 0 1.361-.472.894.894 0 0 0-.04-.692l-1.292-2.612a.908.908 0 0 0-.528-.462.937.937 0 0 0-.992.256.896.896 0 0 0-.14 1l1.291 2.608Z" fill="#0CBD68"/></g><defs><clipPath id="a"><path fill="#fff" transform="translate(.064 .656)" d="M0 0h63v62H0z"/></clipPath></defs></svg>